OpenSim_Sub09_CSStiffKnee_GRF.mot
version=1
nRows=29
nColumns=19
inDegrees=no
endheader
time	lFx	lFy	lFz	lCOPx	lCOPy	lCOPz	rFx	rFy	rFz	rCOPx	rCOPy	rCOPz	lMx	lMy	lMz	rMx	rMy	rMz
35.63000000	5.36667048	86.95773848	16.84135875	0.48021944	0	-0.72629449	-0.38984788	0.02557753	0.07031907	-0.00000668	0	0.00000295	0	0.32976156	0	0	-0.00000292	-0.00000000
35.64000000	-0.56273739	59.08994166	14.25524536	0.40670235	0	-0.61327841	-0.38702157	0.11499117	0.10414983	-0.00002484	0	0.00001053	0	0.53989401	0	0	0.00000041	-0.00000000
35.65000000	-4.95091710	37.07184786	11.90659376	0.27533447	0	-0.40704174	-0.33613573	0.16881220	0.18039870	-0.00005065	0	0.00002104	0	0.58623051	0	0	0.00001232	-0.00000000
35.66000000	-6.78449834	20.23008762	9.64279869	0.12966781	0	-0.18409566	-0.28559701	0.09358945	0.23273573	-0.00006073	0	0.00002441	0	0.39404022	0	0	0.00003612	0.00000000
35.67000000	-5.35595340	8.22526475	7.25339582	0.03260243	0	-0.04177766	-0.25939816	-0.08750011	0.17867212	0.00000630	0	-0.00000512	0	0.16542387	0	0	0.00006376	-0.00000000
35.68000000	-2.58529091	1.37491299	5.43668436	-0.00789620	0	0.01484844	-0.26476343	-0.17162733	0.11367998	0.00024955	0	-0.00010820	0	0.02952854	0	0	0.00005808	-0.00000000
35.69000000	-0.67224414	-1.08282815	4.77353611	-0.01496772	0	0.02299571	-0.30422474	-0.06808486	0.05092598	0.00073944	0	-0.00031156	0	-0.01980551	0	0	-0.00006411	-0.00000000
35.70000000	0.15332736	-1.22956844	4.52943508	-0.00999188	0	0.01463450	-0.34224439	0.18645800	0.01698649	0.00131559	0	-0.00054275	0	-0.02376416	0	0	-0.00041633	0.00000000
35.71000000	0.28387464	-0.73380025	4.56779764	-0.00411301	0	0.00574101	-0.33095562	0.45889067	0.05077120	0.00122035	0	-0.00047879	0	-0.01394711	0	0	-0.00103038	0
35.72000000	0.18744823	-0.31052975	4.62691916	-0.00068284	0	0.00077177	-0.23686004	0.47891598	0.06182932	-0.00125569	0	0.00059351	0	-0.00498384	0	0	-0.00157313	0
35.73000000	0.14330533	-0.06856525	4.65125237	0.00053385	0	-0.00089145	-0.01644999	-0.34744909	0.10541634	-0.00846841	0	0.00363095	0	-0.00034225	0	0	-0.00090491	0
35.74000000	0.17869919	-0.02936447	4.81057994	0.00061073	0	-0.00092265	0.38684256	-2.85213587	0.19054099	-0.02114228	0	0.00885607	0	0.00103825	0	0	0.00319715	-0.00000000
35.75000000	0.28078323	-0.11694071	4.91479013	0.00035188	0	-0.00050920	0.74412412	-7.29023802	0.31762181	-0.03256012	0	0.01332138	0	0.00092781	0	0	0.01321095	0.00000000
35.76000000	0.44074243	-0.25297908	5.04711573	0.00012280	0	-0.00016744	0.27466051	-11.31805215	0.34360886	-0.01942791	0	0.00716711	0	0.00047464	0	0	0.02828727	0
35.77000000	0.66766112	-0.33791877	5.17122847	0.00000626	0	-0.00000079	-2.52101459	-6.81563931	-0.12017149	0.06403677	0	-0.02858989	0	0.00013820	0	0	0.03643251	0
35.78000000	0.94397736	-0.37818949	5.26461487	-0.00002733	0	0.00004352	-9.27992977	22.10325374	-1.52258873	0.26954804	0	-0.11462939	0	-0.00001369	0	0	0.00418009	0
35.79000000	1.24235722	-0.48393981	5.39118469	-0.00002370	0	0.00003532	-19.61262222	93.88055870	-4.16007211	0.58303237	0	-0.24287504	0	-0.00004749	0	0	-0.12653182	0
35.80000000	1.55499371	-0.64411021	5.58420879	-0.00001191	0	0.00001701	-33.02083015	213.85513064	-7.47568571	0.86114428	0	-0.35275813	0	-0.00003470	0	0	-0.39643052	0.00000000
35.81000000	1.87356463	-0.74688398	5.85886213	-0.00000336	0	0.00000441	-55.67757910	361.13365555	-11.35416032	1.01199183	0	-0.40845177	0	-0.00001547	0	0	-0.59929508	0
35.82000000	2.18911581	-0.76963788	6.12335984	0.00000043	0	-0.00000093	-90.01362217	499.07913340	-17.99211584	1.06282768	0	-0.42355003	0	-0.00000333	0	0	-0.83901825	0.00000000
35.83000000	2.47867828	-0.80652520	6.36078113	0.00000123	0	-0.00000191	-123.71479659	599.78591634	-28.33682445	1.06663000	0	-0.42020848	0	0.00000140	0	0	-1.17053422	0
35.84000000	2.74085664	-0.91361005	6.52835857	0.00000088	0	-0.00000130	-144.57640909	655.31302432	-41.70731877	1.05737274	0	-0.41263926	0	0.00000200	0	0	-1.62385861	-0.00000000
35.85000000	2.95640167	-1.01448036	6.65866614	0.00000039	0	-0.00000054	-154.95646414	675.79610867	-56.50147516	1.04711647	0	-0.40652058	0	0.00000125	0	0	-2.06295089	0
35.86000000	3.12744442	-1.01677159	6.82794674	0.00000008	0	-0.00000010	-159.92950713	682.41526582	-71.56920835	1.03870593	0	-0.40260306	0	0.00000048	0	0	-2.28077862	0.00000000
35.87000000	3.26382182	-0.88193908	6.95648740	-0.00000004	0	0.00000007	-163.86695527	692.15503788	-85.81635260	1.03257436	0	-0.40015239	0	0.00000006	0	0	-2.11338600	0
35.88000000	3.33999325	-0.68563132	7.02184705	-0.00000005	0	0.00000008	-167.87130290	708.36495418	-96.12238480	1.02866030	0	-0.39856955	0	-0.00000008	0	0	-1.87028649	0
35.89000000	3.35011393	-0.55830926	7.07127584	-0.00000003	0	0.00000005	-168.25811767	726.59552805	-100.47032241	1.02610535	0	-0.39770446	0	-0.00000008	0	0	-2.18456510	0.00000000
35.90000000	3.36772666	-0.49968222	7.06018158	-0.00000001	0	0.00000001	-164.15479429	745.54673388	-100.42937732	1.02356436	0	-0.39746651	0	-0.00000004	0	0	-2.72730576	-0.00000000
35.91000000	3.41388209	-0.52850341	6.96651634	0.00000000	0	-0.00000000	-156.44068264	763.77239616	-97.69718438	1.02025354	0	-0.39763073	0	0.00000000	0	0	-3.24821912	0
